<svg width="1600" height="1200" viewBox="0 0 1600 1200" fill="none" xmlns="http://www.w3.org/2000/svg" role="img" aria-labelledby="title">
  <title id="title">KLYSELZ brand board</title>
  <rect width="1600" height="1200" fill="#FFFFFF"/>
  <rect x="56" y="56" width="1488" height="1088" rx="28" stroke="#E4E4E7" stroke-width="2"/>

  <text x="96" y="138" fill="#0A0A0A" font-family="Inter, Arial, Helvetica, sans-serif" font-size="28" font-weight="800" letter-spacing="6">KLYSELZ</text>
  <text x="96" y="200" fill="#0A0A0A" font-family="Inter, Arial, Helvetica, sans-serif" font-size="74" font-weight="800">Brand Kit</text>
  <text x="96" y="252" fill="#71717A" font-family="Inter, Arial, Helvetica, sans-serif" font-size="24" font-weight="500">Minimal black-and-white identity for AI automation systems.</text>

  <rect x="96" y="328" width="640" height="300" rx="18" fill="#FAFAFA" stroke="#E4E4E7" stroke-width="2"/>
  <g transform="translate(140 396) scale(1.25)">
    <path d="M18 12V52" stroke="#0A0A0A" stroke-width="8" stroke-linecap="square"/>
    <path d="M28 32L46 12" stroke="#0A0A0A" stroke-width="8" stroke-linecap="square"/>
    <path d="M28 32L48 52" stroke="#0A0A0A" stroke-width="8" stroke-linecap="square"/>
    <circle cx="51" cy="32" r="4.5" fill="#0A0A0A"/>
  </g>
  <text x="250" y="462" fill="#0A0A0A" font-family="Inter, Arial, Helvetica, sans-serif" font-size="56" font-weight="800" letter-spacing="11">KLYSELZ</text>
  <text x="140" y="548" fill="#71717A" font-family="Inter, Arial, Helvetica, sans-serif" font-size="22" font-weight="500">Primary lockup: signal K + expanded wordmark.</text>

  <rect x="792" y="328" width="344" height="300" rx="18" fill="#0A0A0A"/>
  <g transform="translate(922 436) scale(1.35)">
    <path d="M18 12V52" stroke="#FFFFFF" stroke-width="8" stroke-linecap="square"/>
    <path d="M28 32L46 12" stroke="#FFFFFF" stroke-width="8" stroke-linecap="square"/>
    <path d="M28 32L48 52" stroke="#FFFFFF" stroke-width="8" stroke-linecap="square"/>
    <circle cx="51" cy="32" r="4.5" fill="#FFFFFF"/>
  </g>
  <text x="836" y="584" fill="#FFFFFF" font-family="Inter, Arial, Helvetica, sans-serif" font-size="18" font-weight="600" letter-spacing="3">SYMBOL / APP ICON</text>

  <rect x="1192" y="328" width="256" height="300" rx="18" fill="#FAFAFA" stroke="#E4E4E7" stroke-width="2"/>
  <rect x="1234" y="384" width="64" height="64" rx="10" fill="#0A0A0A"/>
  <rect x="1310" y="384" width="64" height="64" rx="10" fill="#FFFFFF" stroke="#E4E4E7" stroke-width="2"/>
  <rect x="1234" y="472" width="64" height="64" rx="10" fill="#F4F4F5"/>
  <rect x="1310" y="472" width="64" height="64" rx="10" fill="#E4E4E7"/>
  <rect x="1234" y="560" width="64" height="64" rx="10" fill="#71717A"/>
  <rect x="1310" y="560" width="64" height="64" rx="10" fill="#27272A"/>
  <text x="1392" y="424" fill="#0A0A0A" font-family="Inter, Arial, Helvetica, sans-serif" font-size="18" font-weight="700">#0A0A0A</text>
  <text x="1392" y="512" fill="#71717A" font-family="Inter, Arial, Helvetica, sans-serif" font-size="18" font-weight="700">GREYS</text>
  <text x="1392" y="600" fill="#0A0A0A" font-family="Inter, Arial, Helvetica, sans-serif" font-size="18" font-weight="700">MONO</text>

  <text x="96" y="734" fill="#0A0A0A" font-family="Inter, Arial, Helvetica, sans-serif" font-size="46" font-weight="800">Nie wieder Kundenanfragen verlieren.</text>
  <text x="96" y="790" fill="#71717A" font-family="Inter, Arial, Helvetica, sans-serif" font-size="24" font-weight="500">KI-Systeme für lokale Betriebe: Antworten, Termine, Dashboard.</text>

  <rect x="96" y="868" width="330" height="190" rx="16" fill="#FFFFFF" stroke="#E4E4E7" stroke-width="2"/>
  <text x="126" y="930" fill="#0A0A0A" font-family="Inter, Arial, Helvetica, sans-serif" font-size="22" font-weight="800" letter-spacing="4">KLYSELZ</text>
  <text x="126" y="1008" fill="#0A0A0A" font-family="Inter, Arial, Helvetica, sans-serif" font-size="26" font-weight="700">Business card</text>

  <rect x="476" y="868" width="330" height="190" rx="16" fill="#0A0A0A"/>
  <text x="506" y="930" fill="#FFFFFF" font-family="Inter, Arial, Helvetica, sans-serif" font-size="22" font-weight="800" letter-spacing="4">KLYSELZ</text>
  <text x="506" y="1008" fill="#FFFFFF" font-family="Inter, Arial, Helvetica, sans-serif" font-size="26" font-weight="700">Dark usage</text>

  <rect x="856" y="868" width="330" height="190" rx="16" fill="#FAFAFA" stroke="#E4E4E7" stroke-width="2"/>
  <text x="886" y="930" fill="#0A0A0A" font-family="Inter, Arial, Helvetica, sans-serif" font-size="22" font-weight="800" letter-spacing="4">SOCIAL</text>
  <text x="886" y="1008" fill="#0A0A0A" font-family="Inter, Arial, Helvetica, sans-serif" font-size="26" font-weight="700">Post template</text>

  <rect x="1236" y="868" width="212" height="190" rx="16" fill="#FFFFFF" stroke="#E4E4E7" stroke-width="2"/>
  <text x="1266" y="930" fill="#0A0A0A" font-family="Inter, Arial, Helvetica, sans-serif" font-size="20" font-weight="800" letter-spacing="4">VOICE</text>
  <text x="1266" y="988" fill="#71717A" font-family="Inter, Arial, Helvetica, sans-serif" font-size="20" font-weight="500">Quiet.</text>
  <text x="1266" y="1024" fill="#71717A" font-family="Inter, Arial, Helvetica, sans-serif" font-size="20" font-weight="500">Sharp.</text>
</svg>
